<svg data-v-423bf9ae="" xmlns="http://www.w3.org/2000/svg" viewBox="0 0 467.2752363264706 163" class="iconAbove"><!----><!----><!----><g data-v-423bf9ae="" id="56fb816c-c334-455e-a6e6-c4f24aa81b07" fill="black" transform="matrix(6.102537903364184,0,0,6.102537903364184,-2.1969172879329335,69.68014615269831)"><path d="M6.92 6.29C6.92 6.15 6.92 5.70 6.80 5.54C5.25 5.60 3.68 5.61 2.13 5.59C1.92 5.57 1.47 5.50 1.37 5.50C1.26 5.50 0.85 5.56 0.66 5.61C0.52 5.64 0.36 6.85 0.36 7.04C0.36 7.15 0.55 9.76 0.55 9.87C0.55 10.00 0.50 10.88 0.50 12.26C0.50 12.81 0.69 13.78 0.69 13.89C0.69 14 0.45 14.62 0.46 14.74L0.46 15.20L1.90 15.20C2.11 14.78 2.24 14.49 2.24 14.22C2.24 13.65 1.92 13.34 1.92 12.49C1.92 12.38 1.99 11.94 2.04 11.66C2.06 11.55 2.13 11.31 2.23 11.24C2.42 11.12 3.96 11.00 4.58 11.00C4.69 11.00 5.45 11.09 5.57 11.09L6.90 11.09C6.86 10.99 6.90 10.86 6.89 9.53L2.04 9.53C1.95 9.45 1.92 9.38 1.92 9.28C1.92 9.17 2.13 8.61 2.14 8.41C2.21 7.78 1.97 7.36 2.18 7.13C3.01 7.06 4.89 7.01 4.98 7.01C5.10 7.01 6.50 7.11 6.61 7.11C6.99 7.11 6.92 6.50 6.92 6.29ZM9.63 13.10C9.63 12.99 9.49 9.32 9.49 9.21L9.49 7.56C9.49 7.45 9.42 7.20 9.41 7.03C9.38 6.73 9.48 6.29 9.48 6.03C9.48 5.85 9.45 5.61 9.49 5.47C8.72 5.52 8.36 5.52 8.06 5.47C8.02 5.50 7.95 5.61 7.95 5.67C7.95 6.48 8.08 7.29 8.02 8.06C7.98 8.83 7.84 9.66 7.87 10.43C7.87 10.68 7.97 11.05 7.94 11.28C7.88 11.79 7.77 12.68 7.77 12.77C7.77 12.88 7.90 13.47 7.94 13.83C7.98 14.15 7.91 14.60 7.97 14.94C8.27 15.18 8.51 15.18 8.86 15.18C8.97 15.18 9.34 15.16 9.53 15.12C9.63 14.43 9.63 13.20 9.63 13.10ZM17.32 6.48C17.32 6.31 17.22 5.77 17.12 5.53C16.39 5.59 14.95 5.63 14.85 5.63C14.74 5.63 11.48 5.49 11.35 5.49C11.14 5.49 10.63 5.70 10.63 6.08L10.63 7.10C10.91 7.14 11.30 7.25 11.41 7.25C11.52 7.25 12.24 7.11 12.35 7.11C12.49 7.11 13.05 7.13 13.10 7.28C13.26 7.80 13.30 8.97 13.30 9.07C13.30 10.26 13.08 9.70 13.26 12.66C13.30 13.33 13.20 13.52 13.22 13.69C13.29 14.24 13.22 14.77 13.30 15.19C13.78 15.15 14.13 15.13 14.87 15.18C14.69 15.09 14.87 14.38 14.87 14.17L14.87 11.10C14.87 11.00 14.73 10.29 14.74 9.95C14.77 9.31 14.88 8.16 14.88 7.28C15.09 7.07 15.46 7.11 15.67 7.11C15.78 7.11 16.91 7.15 17.02 7.15C17.30 7.15 17.32 6.62 17.32 6.48ZM30.00 6.29C30.00 6.15 30.00 5.70 29.89 5.54C28.34 5.60 26.77 5.61 25.21 5.59C25.00 5.57 24.56 5.50 24.46 5.50C24.35 5.50 23.94 5.56 23.74 5.61C23.60 5.64 23.45 6.85 23.45 7.04C23.45 7.15 23.63 9.76 23.63 9.87C23.63 10.00 23.59 10.88 23.59 12.26C23.59 12.81 23.77 13.78 23.77 13.89C23.77 14 23.53 14.62 23.55 14.74L23.55 15.20L24.99 15.20C25.20 14.78 25.33 14.49 25.33 14.22C25.33 13.65 25.00 13.34 25.00 12.49C25.00 12.38 25.07 11.94 25.13 11.66C25.14 11.55 25.21 11.31 25.31 11.24C25.51 11.12 27.05 11.00 27.66 11.00C27.78 11.00 28.53 11.09 28.66 11.09L29.99 11.09C29.95 10.99 29.99 10.86 29.97 9.53L25.13 9.53C25.03 9.45 25.00 9.38 25.00 9.28C25.00 9.17 25.21 8.61 25.23 8.41C25.30 7.78 25.06 7.36 25.27 7.13C26.10 7.06 27.97 7.01 28.07 7.01C28.18 7.01 29.58 7.11 29.69 7.11C30.07 7.11 30.00 6.50 30.00 6.29ZM38.79 10.49C38.79 11.68 37.56 13.61 36.02 13.61C35.14 13.61 33.54 13.03 32.77 11.66C32.73 11.59 32.28 10.74 32.28 10.53C32.28 9.74 33.45 7.48 34.41 7.45C34.57 7.38 34.87 7.32 35.01 7.32C35.11 7.32 36.22 7.38 36.71 7.43C36.86 7.45 37.14 7.60 37.31 7.67C37.70 7.83 38.02 8.36 38.12 8.67C38.19 8.93 38.46 9.20 38.58 9.49C38.72 9.80 38.79 10.37 38.79 10.49ZM40.39 9.94C40.39 9.27 40.35 9.14 39.97 8.22C39.45 7 37.87 6.02 37.03 5.70C36.69 5.56 35.76 5.49 35.66 5.49C34.82 5.49 33.77 6.09 33.12 6.43C32.37 6.83 31.78 7.80 31.50 8.34C31.05 9.18 30.91 9.67 30.91 10.21C30.91 10.81 31.28 12.36 31.43 12.71C31.68 13.29 32.17 13.52 32.66 14C32.79 14.11 32.98 14.15 33.07 14.25C33.85 15.09 34.44 15.16 35.10 15.16C38.22 15.16 40.39 13.29 40.39 9.94ZM46.28 8.67C46.28 8.93 46.31 9.20 45.96 9.55C45.78 9.73 45.35 9.73 45.01 9.76C44.74 9.79 44.31 9.88 44.20 9.88C44.10 9.88 43.44 9.83 43.12 9.69C42.97 9.62 42.92 8.85 42.92 8.54C42.92 8.43 43.02 7.64 43.02 7.24C43.16 7.28 43.40 7.38 43.51 7.38C43.62 7.38 44.45 7.28 44.56 7.28C45.32 7.28 46.28 7.62 46.28 8.67ZM47.85 15.19C47.71 14.53 47.19 14.13 46.83 13.20C46.49 12.36 46.56 11.84 46.02 11.12C47.18 11.05 47.75 9.02 47.75 8.09C47.75 7.97 47.75 7.73 47.74 7.62C47.67 7.04 46.27 5.89 45.64 5.82C44.74 5.71 43.02 5.59 42.92 5.59C42.92 5.59 41.78 5.60 41.59 5.87C41.64 6.17 41.61 6.62 41.59 6.86C41.57 7.45 41.50 8.19 41.50 8.29L41.50 14.69C41.50 14.80 41.59 15.02 41.64 15.16C41.82 15.11 41.89 15.12 41.99 15.12C42.11 15.12 42.64 15.20 43.05 15.25C43.05 14.70 43.15 14.15 43.06 12.14C43.05 11.90 42.95 11.42 43.09 11.31C43.54 11.35 44.10 11.06 44.37 11.37C45.02 12.10 45.96 13.87 46.09 15.05C45.99 15.33 46.80 15.29 46.97 15.29C47.08 15.29 47.67 15.27 47.85 15.19ZM59.25 15.22C59.21 14.13 59.15 13.78 59.15 13.50C58.97 13.54 58.72 13.58 58.62 13.58C58.51 13.58 57.69 13.50 57.60 13.50C57.47 13.50 56.55 13.58 56.43 13.58C56.34 13.58 55.89 13.65 55.85 13.43C55.76 12.98 55.79 12.29 55.79 12.19C55.79 12.08 55.93 10.79 55.93 10.70L55.93 9.31C55.93 9.20 55.72 7.04 55.64 5.95C55.64 5.85 55.54 5.74 55.51 5.71C55.44 5.67 54.75 5.52 54.49 5.52C54.26 5.52 54.01 5.59 54.01 5.84C54.01 5.94 54.11 6.01 54.11 6.03C54.11 6.40 54.11 6.87 54.15 7.18L54.19 10.46C54.19 11.83 54.22 13.20 54.18 14.56C54.18 14.69 54.19 14.88 54.21 15.02C54.26 15.13 54.85 15.22 55.06 15.22C55.17 15.22 57.88 15.22 59.25 15.22ZM61.96 13.10C61.96 12.99 61.82 9.32 61.82 9.21L61.82 7.56C61.82 7.45 61.75 7.20 61.74 7.03C61.71 6.73 61.81 6.29 61.81 6.03C61.81 5.85 61.78 5.61 61.82 5.47C61.05 5.52 60.69 5.52 60.40 5.47C60.35 5.50 60.28 5.61 60.28 5.67C60.28 6.48 60.41 7.29 60.35 8.06C60.31 8.83 60.17 9.66 60.20 10.43C60.20 10.68 60.30 11.05 60.27 11.28C60.21 11.79 60.10 12.68 60.10 12.77C60.10 12.88 60.23 13.47 60.27 13.83C60.31 14.15 60.24 14.60 60.30 14.94C60.61 15.18 60.84 15.18 61.19 15.18C61.31 15.18 61.67 15.16 61.87 15.12C61.96 14.43 61.96 13.20 61.96 13.10ZM69.37 6.29C69.37 6.15 69.37 5.70 69.26 5.54C67.70 5.60 66.14 5.61 64.58 5.59C64.37 5.57 63.92 5.50 63.83 5.50C63.71 5.50 63.31 5.56 63.11 5.61C62.97 5.64 62.82 6.85 62.82 7.04C62.82 7.15 63 9.76 63 9.87C63 10.00 62.96 10.88 62.96 12.26C62.96 12.81 63.14 13.78 63.14 13.89C63.14 14 62.90 14.62 62.92 14.74L62.92 15.20L64.36 15.20C64.57 14.78 64.69 14.49 64.69 14.22C64.69 13.65 64.37 13.34 64.37 12.49C64.37 12.38 64.44 11.94 64.50 11.66C64.51 11.55 64.58 11.31 64.68 11.24C64.88 11.12 66.42 11.00 67.03 11.00C67.14 11.00 67.90 11.09 68.03 11.09L69.36 11.09C69.31 10.99 69.36 10.86 69.34 9.53L64.50 9.53C64.40 9.45 64.37 9.38 64.37 9.28C64.37 9.17 64.58 8.61 64.60 8.41C64.67 7.78 64.43 7.36 64.64 7.13C65.46 7.06 67.34 7.01 67.44 7.01C67.55 7.01 68.95 7.11 69.06 7.11C69.44 7.11 69.37 6.50 69.37 6.29ZM76.92 5.67C75.77 5.60 73.65 5.46 73.54 5.46C73.43 5.46 71.37 5.66 70.34 5.78C70.34 6.19 70.24 6.96 70.24 7.06C70.24 7.17 70.36 11.28 70.41 13.36C70.41 13.79 70.27 14.62 70.29 15.02C70.34 15.06 70.35 15.12 70.42 15.16L76.85 15.16L76.85 14.92C76.85 14.81 76.73 14.70 76.72 14.60C76.69 14.34 76.71 14.03 76.65 13.83C76.48 13.79 76.29 13.73 76.15 13.73C74.17 13.65 73.32 13.73 73.21 13.73C73.12 13.73 72.09 13.65 71.90 13.48C72.28 10.79 71.61 11.03 73.81 11.03C73.92 11.03 75.15 11.21 75.26 11.21L76.61 11.21C76.79 11.09 76.80 10.54 76.80 10.35C76.80 10.23 76.80 9.87 76.75 9.67L76.79 9.62C75.61 9.67 74.77 9.69 74.66 9.69C74.55 9.69 73.47 9.60 73.36 9.60C73.25 9.60 72.31 9.73 72.20 9.73C72.11 9.73 71.86 9.59 71.86 9.42C71.86 9.31 71.95 9.25 71.95 9.17C71.96 8.61 71.96 7.83 72.07 7.27C72.80 7.04 72.93 7.08 73.43 7.08L76.17 7.17C77.21 7.17 76.86 6.97 76.92 5.67Z"></path></g><!----><g data-v-423bf9ae="" id="a52c877c-008a-4caf-af83-26ab620c64f1" transform="matrix(1.7636339307806335,0,0,1.7636339307806335,145.8183034609683,-42.69681259027871)" stroke="none" fill="black"><path d="M36.213 43.757h27.574v12.485H36.213zM98.611 43.757h-2.437v12.485h2.437c.764 0 1.389-.626 1.389-1.39v-9.707c0-.763-.625-1.388-1.389-1.388zM1.389 43.757c-.764 0-1.389.625-1.389 1.389v9.707c0 .764.625 1.39 1.389 1.39h2.437V43.757H1.389zM32.383 24.484h-9.754c-.765 0-1.389.625-1.389 1.389v48.251c0 .764.624 1.389 1.389 1.389h9.754c.764 0 1.389-.625 1.389-1.389v-48.25a1.395 1.395 0 0 0-1.389-1.39zM17.41 30.563H7.655c-.764 0-1.389.625-1.389 1.389v36.092c0 .764.625 1.389 1.389 1.389h9.755c.762 0 1.389-.625 1.389-1.389V31.953c0-.764-.627-1.39-1.389-1.39zM77.371 24.484h-9.754c-.764 0-1.389.625-1.389 1.389v48.253c0 .764.625 1.389 1.389 1.389h9.754c.764 0 1.389-.625 1.389-1.389V25.874c0-.764-.625-1.39-1.389-1.39zM92.345 30.565H82.59c-.764 0-1.389.625-1.389 1.389v36.092c0 .764.625 1.389 1.389 1.389h9.755c.764 0 1.389-.625 1.389-1.389V31.954a1.394 1.394 0 0 0-1.389-1.389z"></path></g><!----></svg>