<svg data-v-fde0c5aa="" xmlns="http://www.w3.org/2000/svg" viewBox="0 0 300 300" class="iconLeft"><!----><defs data-v-fde0c5aa=""><!----></defs><rect data-v-fde0c5aa="" fill="transparent" x="0" y="0" width="300px" height="300px" class="logo-background-square"></rect><defs data-v-fde0c5aa=""><!----></defs><g data-v-fde0c5aa="" id="cc68eaa1-233f-4e23-9d09-14a34e7c1b53" fill="#000000" transform="matrix(3.239521852338457,0,0,3.239521852338457,100.61552239338887,131.85867735657789)"><path d="M1.54 0.70L1.54 0.70L4.00 0.70L4.00 1.68L4.00 2.24L1.54 2.24L1.54 4.07L3.50 4.07L3.50 4.35L3.50 5.33L3.50 5.61L1.54 5.61L1.54 10.50L0 10.50L0 9.48L0 1.22L0 0.70L1.54 0.70ZM6.45 10.50L6.45 10.50L4.91 10.50L4.91 0.70L6.45 0.70L6.45 10.50ZM11.76 0.70L11.76 0.70L11.76 2.24L10.37 2.24L10.37 8.67L10.37 10.50L8.83 10.50L8.83 8.67L8.83 2.24L7.35 2.24L7.35 0.70L8.83 0.70L10.37 0.70L11.76 0.70ZM16.52 0.70L18.98 0.70L18.98 1.68L18.98 2.24L16.52 2.24L16.52 4.07L18.48 4.07L18.48 4.35L18.48 5.33L18.48 5.61L16.52 5.61L16.52 10.50L14.98 10.50L14.98 9.48L14.98 4.07L16.52 4.07L14.98 1.04L14.98 0.70L16.52 0.70ZM20.82 0.70L23.41 0.70L23.41 0.70Q23.80 0.77 24.07 1.08L24.07 1.08L24.07 1.08Q24.33 1.40 24.33 1.81L24.33 1.81L24.33 2.86L24.33 3.28L24.33 3.30L24.33 8.36L24.33 9.41L24.33 9.41Q24.33 9.81 24.07 10.12L24.07 10.12L24.07 10.12Q23.80 10.43 23.41 10.50L23.41 10.50L20.82 10.50L20.82 10.50Q20.43 10.43 20.16 10.12L20.16 10.12L20.16 10.12Q19.89 9.81 19.89 9.41L19.89 9.41L19.89 1.81L19.89 1.81Q19.89 1.40 20.16 1.08L20.16 1.08L20.16 1.08Q20.43 0.77 20.82 0.70L20.82 0.70ZM22.79 3.30L22.79 3.28L22.79 2.86L22.79 2.24L21.43 2.24L21.43 8.97L22.79 8.97L22.79 8.36L22.79 3.30ZM28.71 5.60L30.03 10.50L28.55 10.50L26.78 4.06L28.15 4.06L28.15 2.25L26.78 2.25L26.78 4.06L25.24 1.02L25.24 0.70L28.57 0.70L28.57 0.70Q29.01 0.70 29.32 0.98L29.32 0.98L29.32 0.98Q29.62 1.26 29.68 1.68L29.68 1.68L29.69 4.48L29.69 4.49L29.69 4.49Q29.69 4.91 29.41 5.23L29.41 5.23L29.41 5.23Q29.12 5.54 28.71 5.60L28.71 5.60ZM25.24 10.50L25.24 4.06L26.78 4.06L26.78 10.50L25.24 10.50ZM34.45 8.96L34.45 8.96L36.89 8.96L36.89 10.50L34.45 10.50L32.91 10.50L32.91 10.50L32.91 8.96L32.91 8.96L32.91 0.70L34.45 0.70L34.45 8.96ZM39.37 10.50L39.37 10.50L37.83 10.50L37.83 0.70L39.37 0.70L39.37 10.50ZM41.82 0.70L44.28 0.70L44.28 1.68L44.28 2.24L41.82 2.24L41.82 4.07L43.78 4.07L43.78 4.35L43.78 5.33L43.78 5.61L41.82 5.61L41.82 10.50L40.28 10.50L40.28 9.48L40.28 4.07L41.82 4.07L40.28 1.04L40.28 0.70L41.82 0.70ZM46.73 0.70L46.73 0.70L49.20 0.70L49.20 1.68L49.20 2.24L46.73 2.24L46.73 4.07L48.69 4.07L48.69 4.35L48.69 5.33L48.69 5.61L46.73 5.61L46.73 8.96L49.20 8.96L49.20 9.52L49.20 10.50L46.73 10.50L45.19 10.50L45.19 9.48L45.19 4.07L46.73 4.07L45.19 1.04L45.19 0.70L46.73 0.70Z"></path></g><defs data-v-fde0c5aa=""><linearGradient data-v-fde0c5aa="" gradientTransform="rotate(25)" id="7e6b51d8-071c-40e0-8123-9163f8f9ae81" x1="0%" y1="0%" x2="100%" y2="0%"><stop data-v-fde0c5aa="" offset="0%" stop-color="#6A4F4C" stop-opacity="1"></stop><stop data-v-fde0c5aa="" offset="100%" stop-color="#A0A29B" stop-opacity="1"></stop></linearGradient></defs><g data-v-fde0c5aa="" id="a7512af5-9fea-45d4-a301-d67c5fd93a06" stroke="none" fill="url(#7e6b51d8-071c-40e0-8123-9163f8f9ae81)" transform="matrix(0.529119490729968,0,0,0.529119490729968,37.35059275845209,123.54464512171867)"><path d="M16.171 35.802c-1.241 1.241-3.165 1.333-4.292.206l-1.477-1.477c-1.129-1.129-1.037-3.053.205-4.294l19.629-19.629c1.242-1.242 3.165-1.333 4.294-.205l1.477 1.477c1.127 1.127 1.036 3.05-.206 4.292l-19.63 19.63zM43.3 23.672c1.242-1.242 1.334-3.165.204-4.294l-1.475-1.475c-1.13-1.13-3.052-1.038-4.294.204l-19.63 19.63c-1.241 1.242-1.334 3.165-.204 4.294l1.475 1.475c1.13 1.13 3.053 1.038 4.294-.204l19.63-19.63zm38.351 38.349c1.242-1.242 1.335-3.162.204-4.292l-1.475-1.476c-1.128-1.127-3.052-1.036-4.294.206l-19.63 19.63c-1.24 1.24-1.332 3.165-.204 4.292l1.477 1.477c1.129 1.129 3.05 1.035 4.292-.207l19.63-19.63zm7.5 7.501c1.241-1.242 1.333-3.165.205-4.292l-1.476-1.477c-1.131-1.13-3.051-1.038-4.293.204l-19.63 19.63c-1.242 1.242-1.335 3.165-.205 4.294l1.476 1.477c1.128 1.127 3.052 1.036 4.293-.206l19.63-19.63zM91.9 88.935c.12-.341.112-.632-.055-.797l-4.278-4.28 6.305-6.306c1.033-1.032 1.109-2.631.171-3.569l-1.228-1.227c-.937-.938-2.535-.862-3.569.172l-16.321 16.32c-1.032 1.032-1.107 2.631-.169 3.569l1.226 1.227c.939.938 2.537.862 3.569-.17l6.307-6.307 4.279 4.28c.166.165.457.173.798.053l2.965-2.965zm2.803 3.309l-2.01-2.008-2.46 2.46 2.009 2.009c.497.497 1.452.349 2.132-.331s.825-1.633.329-2.13zM27.111 7.052l-1.228-1.228c-.939-.94-2.535-.861-3.569.171l-6.306 6.306-4.184-4.184c-.146-.146-.393-.159-.68-.082l-3.111 3.11c-.077.288-.065.535.082.681L12.3 16.01l-6.306 6.307c-1.032 1.032-1.11 2.628-.171 3.567l1.228 1.228c.938.938 2.537.864 3.569-.168l16.321-16.321c1.034-1.035 1.109-2.634.17-3.571zM5.63 5.622c-.679.678-.825 1.634-.328 2.131l2.009 2.009L9.77 7.303 7.761 5.294c-.497-.497-1.45-.353-2.131.328zm30.125 27.675l-2.46 2.459 30.666 30.666 2.461-2.459-30.667-30.666z"></path></g><!----></svg>